<?xml version="1.0" encoding="UTF-8"?>
<svg width="20px" height="20px" viewBox="0 0 20 20" version="1.1" xmlns="http://www.w3.org/2000/svg" xmlns:xlink="http://www.w3.org/1999/xlink">
    <!-- Generator: Sketch 60.1 (88133) - https://sketch.com -->
    <title>ico / 24 / actions / add_circle_outlined</title>
    <desc>Created with Sketch.</desc>
    <g id="builder" stroke="none" stroke-width="1" fill="none" fill-rule="evenodd">
        <g id="Artboard" transform="translate(-378.000000, -229.000000)" fill="#686F7D" fill-rule="nonzero">
            <g id="ico-/-24-/-actions-/-add_circle_outlined" transform="translate(376.000000, 227.000000)">
                <path d="M12,2 C6.4771525,2 2,6.4771525 2,12 C2,17.5228475 6.4771525,22 12,22 C17.5228475,22 22,17.5228475 22,12 C22,9.3478351 20.9464316,6.80429597 19.0710678,4.92893219 C17.195704,3.0535684 14.6521649,2 12,2 Z M12,20 C7.581722,20 4,16.418278 4,12 C4,7.581722 7.581722,4 12,4 C16.418278,4 20,7.581722 20,12 C20,14.1217319 19.1571453,16.1565632 17.6568542,17.6568542 C16.1565632,19.1571453 14.1217319,20 12,20 Z M15.5,11 L13,11 L13,8.5 C13,8.22385763 12.7761424,8 12.5,8 L11.5,8 C11.2238576,8 11,8.22385763 11,8.5 L11,11 L8.5,11 C8.22385763,11 8,11.2238576 8,11.5 L8,12.5 C8,12.7761424 8.22385763,13 8.5,13 L11,13 L11,15.5 C11,15.7761424 11.2238576,16 11.5,16 L12.5,16 C12.7761424,16 13,15.7761424 13,15.5 L13,13 L15.5,13 C15.7761424,13 16,12.7761424 16,12.5 L16,11.5 C16,11.2238576 15.7761424,11 15.5,11 Z" id="Icon-color"></path>
            </g>
        </g>
    </g>
</svg>