<?xml version="1.0" encoding="UTF-8"?>
<svg width="18px" height="18px" viewBox="0 0 18 18" version="1.1" xmlns="http://www.w3.org/2000/svg" xmlns:xlink="http://www.w3.org/1999/xlink">
<g id="builder" stroke="none" stroke-width="1" fill="none" fill-rule="evenodd">
<g id="ico-/-24-/-social-media-&amp;-tools-/-instagram" transform="translate(-3.000000, -3.000000)" fill="#FFFFFF" fill-rule="nonzero">
<path d="M16,3 L8,3 C5.23857625,3 3,5.23857625 3,8 L3,16 C3,18.7614237 5.23857625,21 8,21 L16,21 C18.7614237,21 21,18.7614237 21,16 L21,8 C21,5.23857625 18.7614237,3 16,3 Z M19.25,16 C19.2445095,17.7926463 17.7926463,19.2445095 16,19.25 L8,19.25 C6.20735374,19.2445095 4.75549053,17.7926463 4.75,16 L4.75,8 C4.75549053,6.20735374 6.20735374,4.75549053 8,4.75 L16,4.75 C17.7926463,4.75549053 19.2445095,6.20735374 19.25,8 L19.25,16 Z M17.75,7.25 C17.75,7.80228475 17.3022847,8.25 16.75,8.25 C16.1977153,8.25 15.75,7.80228475 15.75,7.25 C15.75,6.69771525 16.1977153,6.25 16.75,6.25 C17.3022847,6.25 17.75,6.69771525 17.75,7.25 Z M12,7.49998882 C9.51471863,7.49998882 7.5,9.51471863 7.5,12 C7.5,14.4852814 9.51471863,16.5 12,16.5 C14.4852814,16.5 16.5000112,14.4852814 16.5000112,12 C16.5026629,10.8057115 16.0294122,9.65957102 15.1849206,8.81507939 C14.340429,7.97058776 13.1942885,7.49733714 12,7.49998882 Z M12,14.75 C10.4812169,14.75 9.25,13.5187831 9.25,12 C9.25,10.4812169 10.4812169,9.25 12,9.25 C13.5187831,9.25 14.75,10.4812169 14.75,12 C14.75,13.5187831 13.5187831,14.75 12,14.75 Z" id="Icon-color"></path>
</g>
</g>
</svg>