<?xml version="1.0" encoding="UTF-8"?>
<svg width="18px" height="18px" viewBox="0 0 18 18" version="1.1" xmlns="http://www.w3.org/2000/svg" xmlns:xlink="http://www.w3.org/1999/xlink">
    <!-- Generator: Sketch 60.1 (88133) - https://sketch.com -->
    <title>ico / 24 / actions / search</title>
    <desc>Created with Sketch.</desc>
    <g id="builder" stroke="none" stroke-width="1" fill="none" fill-rule="evenodd">
        <g id="Artboard" transform="translate(-265.000000, -285.000000)" fill="#FFFFFF" fill-rule="nonzero">
            <g id="ico-/-24-/-actions-/-search" transform="translate(262.000000, 282.000000)">
                <path d="M20.8749968,19.460247 L16.8749968,15.4554252 C16.7454271,15.32264 16.6011627,15.2050739 16.4449968,15.1050033 L15.4449968,14.4141716 L15.4449968,14.4141716 C17.5019208,11.8659643 17.521023,8.23098555 15.4909944,5.66124913 C13.4609657,3.0915127 9.92358975,2.27284188 6.9730966,3.68991374 C4.02260345,5.1069856 2.44643451,8.38160539 3.17772793,11.5751023 C3.90902136,14.7685993 6.75260614,17.028678 10.0249968,17.0173057 C11.6130434,17.0177683 13.1540519,16.4775887 14.3949968,15.4854614 L14.3949968,15.4854614 L15.1449968,16.4866668 C15.2339567,16.6156076 15.3343645,16.7362421 15.4449968,16.8471008 L19.4449968,20.8519226 C19.5388801,20.946693 19.6666781,21 19.7999968,21 C19.9333156,21 20.0611135,20.946693 20.1549968,20.8519226 L20.8549968,20.1510787 C21.0448281,19.9630862 21.0536335,19.6589327 20.8749968,19.460247 Z M10.0249968,15.0148948 C7.2635731,15.0148948 5.02499685,12.7736201 5.02499685,10.0088676 C5.02499685,7.24411511 7.2635731,5.00284039 10.0249968,5.00284039 C12.7864206,5.00284039 15.0249968,7.24411511 15.0249968,10.0088676 C15.0249968,11.3365486 14.4982126,12.6098512 13.5605308,13.5486634 C12.6228489,14.4874756 11.3510793,15.0148948 10.0249968,15.0148948 Z" id="Icon-color"></path>
            </g>
        </g>
    </g>
</svg>