<?xml version="1.0" encoding="UTF-8"?>
<svg width="20px" height="20px" viewBox="0 0 20 20" version="1.1" xmlns="http://www.w3.org/2000/svg" xmlns:xlink="http://www.w3.org/1999/xlink">
    <!-- Generator: Sketch 60.1 (88133) - https://sketch.com -->
    <title>ico / 24 / user / user_big</title>
    <desc>Created with Sketch.</desc>
    <g id="builder" stroke="none" stroke-width="1" fill="none" fill-rule="evenodd">
        <g id="Artboard" transform="translate(-506.000000, -279.000000)" fill="#FFFFFF" fill-rule="nonzero">
            <g id="ico-/-24-/-user-/-user_big" transform="translate(504.000000, 277.000000)">
                <path d="M7.0015122,7 C7.0015122,4.23857625 9.2407659,2 12.0030253,2 C14.7652847,2 17.0045384,4.23857625 17.0045384,7 C17.0045384,9.76142375 14.7652847,12 12.0030253,12 C9.2407659,12 7.0015122,9.76142375 7.0015122,7 L7.0015122,7 Z M21.8960183,20.55 L20.0054463,16.76 C19.157477,15.0682954 17.4268822,14 15.5340936,14 L8.47195706,14 C6.57916846,14 4.84857363,15.0682954 4.00060433,16.76 L2.11003237,20.55 C1.95401593,20.8595182 1.96944458,21.2277279 2.15080778,21.5231178 C2.33217098,21.8185078 2.65360361,21.9989511 3.00030171,22 L21.0057489,22 C21.352447,21.9989511 21.6738797,21.8185078 21.8552429,21.5231178 C22.0366061,21.2277279 22.0520347,20.8595182 21.8960183,20.55 Z" id="Icon-color"></path>
            </g>
        </g>
    </g>
</svg>