<?xml version="1.0" encoding="UTF-8"?>
<svg width="19px" height="16px" viewBox="0 0 19 16" version="1.1" xmlns="http://www.w3.org/2000/svg" xmlns:xlink="http://www.w3.org/1999/xlink">
<g id="builder" stroke="none" stroke-width="1" fill="none" fill-rule="evenodd">
<g id="ico-/-24-/-social-media-&amp;-tools-/-vimeo" transform="translate(-1.000000, -1.000000)" fill="#FFFFFF" fill-rule="nonzero">
<path d="M16.1029457,12.09 C13.4923129,15.3633333 11.2822887,17 9.47287308,17 C8.35116896,17 7.39972349,16 6.62855191,14 L5.07619352,8.53 C4.50532625,6.53 3.89439811,5.53 3.22337867,5.53 C2.8123056,5.67944131 2.42709638,5.89199668 2.08164412,6.16 C1.87739534,6.29608863 1.60268996,6.25255085 1.45068555,6.06 L1.11016823,5.64 C1.03079574,5.54894381 0.991391054,5.42986426 1.00080756,5.30951605 C1.01022407,5.18916784 1.06767211,5.07764342 1.1602443,5 C2.0015224,4.31 2.82277006,3.6 3.62398729,2.9 C4.41151006,2.10416414 5.3964976,1.5313237 6.47832368,1.24 C7.96057556,1.08 8.87863697,2.06333333 9.23250791,4.19 C9.60307088,6.46 9.86346648,7.87 10.0136947,8.43 C10.4343338,10.31 10.9050489,11.25 11.4258401,11.25 C11.8364639,11.25 12.4273616,10.64 13.2486093,9.41 C13.8740824,8.5866478 14.3147174,7.63850495 14.5405721,6.63 C14.6507394,5.58 14.21007,5 13.2486093,5 C12.9787028,5.00433127 12.7100615,5.03786041 12.4473921,5.1 C12.327127,5.13952772 12.1949506,5.09953513 12.1168899,5 C12.034569,4.92352185 11.9968377,4.81050007 12.0167378,4.7 C13.0182593,2.16 14.7408764,0.94 17.2046194,1 C19.2076624,1.06 20.1090318,2.3 19.9888492,4.71 C19.9387732,6.51 18.62678,9 16.1029457,12.09 Z" id="Icon-color"></path>
</g>
</g>
</svg>