<?xml version="1.0" encoding="UTF-8"?>
<svg width="22px" height="16px" viewBox="0 0 22 16" version="1.1" xmlns="http://www.w3.org/2000/svg" xmlns:xlink="http://www.w3.org/1999/xlink">
<!-- Generator: Sketch 60.1 (88133) - https://sketch.com -->
<title>Icon color</title>
<desc>Created with Sketch.</desc>
<g id="builder" stroke="none" stroke-width="1" fill="none" fill-rule="evenodd">
<path d="M19,0.49 L17.54,0.34 C13.171557,-0.109977071 8.76844296,-0.109977071 4.4,0.34 L3,0.49 C1.27151792,0.685362662 -0.0264446895,2.16071349 -2.24266135e-14,3.9 L-2.24266135e-14,12.1 C-0.0264446895,13.8392865 1.27151792,15.3146373 3,15.51 L4.46,15.66 C8.82844296,16.1099771 13.231557,16.1099771 17.6,15.66 L19,15.51 C20.7284821,15.3146373 22.0264447,13.8392865 22,12.1 L22,3.9 C22.0264447,2.16071349 20.7284821,0.685362662 19,0.49 Z M14,8.62 L10.11,11.22 C9.88349236,11.3443531 9.60892325,11.343349 9.38333117,11.2173426 C9.15773909,11.0913362 9.01289884,10.8580756 9,10.6 L9,5.4 C9.00050586,5.12279019 9.1538786,4.86846496 9.39882274,4.7386655 C9.64376689,4.60886604 9.94033366,4.62476179 10.17,4.78 L14.06,7.38 C14.2696106,7.51657831 14.3960198,7.74981955 14.3960198,8 C14.3960198,8.25018045 14.2696106,8.48342169 14.06,8.62 L14,8.62 Z" id="Icon-color" fill="#FFFFFF" fill-rule="nonzero"></path>
</g>
</svg>